<svg xmlns="http://www.w3.org/2000/svg" viewBox="0 0 200 200" width="200" height="200">
  <!-- 比特币图标 -->
  <circle cx="100" cy="100" r="95" fill="#f7931a" />
  <path d="M100 185c-46.9 0-85-38.1-85-85s38.1-85 85-85 85 38.1 85 85-38.1 85-85 85z" fill="#f7931a"/>
  <path d="M138.6 93.6c1.9-12.5-7.7-19.2-20.7-23.7l4.2-17-10.3-2.6-4.1 16.5c-2.7-0.7-5.5-1.3-8.2-1.9l4.2-16.6-10.3-2.6-4.2 17c-2.2-0.5-4.4-1-6.5-1.6l0 0-14.2-3.5-2.7 11c0 0 7.7 1.8 7.5 1.9 4.2 1 4.9 3.8 4.8 6l-4.8 19.3c0.3 0.1 0.7 0.2 1.1 0.4-0.3-0.1-0.7-0.2-1.1-0.3l-6.7 27c-0.5 1.3-1.8 3.2-4.7 2.5 0.1 0.1-7.5-1.9-7.5-1.9l-5.1 11.8 13.4 3.3c2.5 0.6 4.9 1.3 7.3 1.9l-4.3 17.2 10.3 2.6 4.2-17c2.8 0.8 5.6 1.5 8.2 2.1l-4.2 16.9 10.3 2.6 4.3-17.1c17.6 3.3 30.9 2 36.5-13.9 4.5-12.8-0.2-20.2-9.6-25 6.8-1.6 12-6.1 13.4-15.3zM116 132.4c-3.2 12.8-24.9 5.9-32 4.2l5.7-22.9c7.1 1.8 29.8 5.3 26.3 18.7zm3.2-33.3c-2.9 11.7-21 5.8-26.9 4.3l5.2-20.7c5.9 1.5 24.9 4.3 21.7 16.4z" fill="#fff"/>
</svg>